<svg width="201" height="35" viewBox="0 0 201 35" fill="none" xmlns="http://www.w3.org/2000/svg">
<path fill-rule="evenodd" clip-rule="evenodd" d="M27.7012 6.55839C25.3197 2.4704 21.2251 0.116699 15.9188 0.116699C7.0611 0.116699 0 7.71459 0 17.1707C0 26.6267 7.0611 34.3072 15.9188 34.3072C21.2251 34.3072 25.3197 31.9535 27.7012 27.8655V33.6465H35.3055V0.777389H27.7012V6.55839ZM17.5483 27.2048C11.9078 27.2048 7.47892 22.7865 7.47892 17.1707C7.47892 11.5548 11.9078 7.21908 17.5483 7.21908C23.1888 7.21908 27.7012 11.5135 27.7012 17.1707C27.7012 22.8278 23.3559 27.2048 17.5483 27.2048Z" fill="#1A2419"/>
<path fill-rule="evenodd" clip-rule="evenodd" d="M182.797 0.111328C173.061 0.111328 165.583 7.50276 165.583 17.2479C165.583 26.993 173.061 34.3018 182.797 34.3018C192.532 34.3018 200.052 26.993 200.052 17.2479C200.052 7.50276 192.49 0.111328 182.797 0.111328ZM182.797 27.1169C177.281 27.1169 173.061 22.8224 173.061 17.2479C173.061 11.6733 177.281 7.29629 182.797 7.29629C188.312 7.29629 192.573 11.5908 192.573 17.2479C192.573 22.905 188.27 27.1169 182.797 27.1169Z" fill="#1A2419"/>
<path fill-rule="evenodd" clip-rule="evenodd" d="M165.577 0.321008C157.806 -0.959072 154.422 1.64238 152.333 7.17563V0.816522H144.77V33.6857H152.333V15.2277C153.293 10.1487 159.853 5.77167 165.577 6.72141V0.321008Z" fill="#1A2419"/>
<path fill-rule="evenodd" clip-rule="evenodd" d="M131.779 18.6117C131.779 23.7733 128.479 27.3245 123.59 27.3245C118.702 27.3245 115.526 23.8146 115.526 18.6117V0.814453H107.964V19.4788C107.964 28.6872 115.025 34.4682 123.59 34.4682C132.155 34.4682 139.3 28.6872 139.3 19.4788V0.814453H131.738V18.6117H131.779Z" fill="#1A2419"/>
<path fill-rule="evenodd" clip-rule="evenodd" d="M55.5735 15.5973C62.5093 14.565 68.8601 7.5039 69.9882 0.814453H61.6737C61.1723 4.98503 57.4537 9.77501 50.0166 11.7984V0.814453H42.4541V33.6836H50.0166V19.644C54.0276 20.2634 61.3812 23.6081 63.2614 33.6836H71.2417C69.9046 24.1862 63.5121 16.6296 55.5318 15.5973H55.5735Z" fill="#1A2419"/>
<path fill-rule="evenodd" clip-rule="evenodd" d="M88.9974 15.5973C95.9331 14.565 102.284 7.5039 103.412 0.814453H95.0975C94.5961 4.98503 90.8775 9.77501 83.4404 11.7984V0.814453H75.8779V33.6836H83.4404V19.644C87.4514 20.2634 94.805 23.6081 96.6852 33.6836H104.665C103.328 24.1862 96.9359 16.6296 88.9556 15.5973H88.9974Z" fill="#1A2419"/>
</svg>
