<svg width="153" height="27" viewBox="0 0 153 27" fill="none" xmlns="http://www.w3.org/2000/svg">
<path fill-rule="evenodd" clip-rule="evenodd" d="M21.086 5.05915C19.2732 1.90555 16.1564 0.0898438 12.1173 0.0898438C5.37487 0.0898438 0 5.95107 0 13.2458C0 20.5404 5.37487 26.4654 12.1173 26.4654C16.1564 26.4654 19.2732 24.6497 21.086 21.4961V25.9557H26.8743V0.599518H21.086V5.05915ZM13.3577 20.9864C9.06413 20.9864 5.69291 17.578 5.69291 13.2458C5.69291 8.91354 9.06413 5.56882 13.3577 5.56882C17.6512 5.56882 21.086 8.88169 21.086 13.2458C21.086 17.6098 17.7784 20.9864 13.3577 20.9864Z" fill="white"/>
<path fill-rule="evenodd" clip-rule="evenodd" d="M139.144 0.0859375C131.733 0.0859375 126.041 5.7879 126.041 13.3056C126.041 20.8232 131.733 26.4615 139.144 26.4615C146.554 26.4615 152.279 20.8232 152.279 13.3056C152.279 5.7879 146.522 0.0859375 139.144 0.0859375ZM139.144 20.9188C134.946 20.9188 131.733 17.6059 131.733 13.3056C131.733 9.0052 134.946 5.62862 139.144 5.62862C143.342 5.62862 146.586 8.94149 146.586 13.3056C146.586 17.6696 143.31 20.9188 139.144 20.9188Z" fill="white"/>
<path fill-rule="evenodd" clip-rule="evenodd" d="M126.037 0.247635C120.121 -0.739855 117.545 1.26698 115.955 5.53548V0.629889H110.198V25.9861H115.955V11.7471C116.686 7.82901 121.679 4.45243 126.037 5.18509V0.247635Z" fill="white"/>
<path fill-rule="evenodd" clip-rule="evenodd" d="M100.31 14.3577C100.31 18.3395 97.7971 21.079 94.0761 21.079C90.355 21.079 87.9379 18.3714 87.9379 14.3577V0.628418H82.1814V15.0267C82.1814 22.1302 87.5563 26.5898 94.0761 26.5898C100.596 26.5898 106.034 22.1302 106.034 15.0267V0.628418H100.278V14.3577H100.31Z" fill="white"/>
<path fill-rule="evenodd" clip-rule="evenodd" d="M42.3024 12.0323C47.5818 11.236 52.416 5.78885 53.2747 0.628418H46.9457C46.5641 3.84572 43.7335 7.54085 38.0724 9.10172V0.628418H32.3159V25.9846H38.0724V15.1541C41.1256 15.6319 46.7231 18.2121 48.1543 25.9846H54.2288C53.2111 18.6581 48.3451 12.8287 42.2705 12.0323H42.3024Z" fill="white"/>
<path fill-rule="evenodd" clip-rule="evenodd" d="M67.7443 12.0323C73.0237 11.236 77.8579 5.78885 78.7166 0.628418H72.3876C72.006 3.84572 69.1754 7.54085 63.5143 9.10172V0.628418H57.7578V25.9846H63.5143V15.1541C66.5675 15.6319 72.165 18.2121 73.5962 25.9846H79.6707C78.653 18.6581 73.787 12.8287 67.7124 12.0323H67.7443Z" fill="white"/>
</svg>
