<svg width="393" height="52" viewBox="0 0 393 52" fill="none" xmlns="http://www.w3.org/2000/svg">
<path opacity="0.35" d="M357.001 20.5029H373.667C374.864 20.5029 375.834 21.4733 375.834 22.6699V28.6699C375.834 29.8664 374.864 30.8359 373.667 30.8359H357.001C355.804 30.8359 354.834 29.8664 354.834 28.6699V22.6699L354.845 22.4482C354.956 21.3556 355.879 20.5029 357.001 20.5029Z" stroke="#121212"/>
<path opacity="0.4" d="M377.334 23.6694V27.6694C378.139 27.3307 378.662 26.5426 378.662 25.6694C378.662 24.7963 378.139 24.0082 377.334 23.6694Z" fill="#121212"/>
<path d="M356.334 23.3363C356.334 22.5999 356.931 22.0029 357.667 22.0029H373.001C373.737 22.0029 374.334 22.5999 374.334 23.3363V28.0029C374.334 28.7393 373.737 29.3363 373.001 29.3363H357.667C356.931 29.3363 356.334 28.7393 356.334 28.0029V23.3363Z" fill="#121212"/>
<path d="M339.455 28.4006C340.731 27.3217 342.598 27.3219 343.874 28.4006C343.938 28.4586 343.976 28.5406 343.978 28.6271C343.979 28.7136 343.946 28.797 343.884 28.8576L341.887 30.8732C341.828 30.9324 341.748 30.9659 341.665 30.966C341.582 30.966 341.502 30.9324 341.443 30.8732L339.445 28.8576C339.384 28.797 339.35 28.7135 339.352 28.6271C339.353 28.5406 339.391 28.4586 339.455 28.4006ZM336.79 25.7111C339.538 23.1552 343.794 23.1551 346.542 25.7111C346.604 25.771 346.64 25.8535 346.641 25.9396C346.642 26.0258 346.608 26.1089 346.547 26.1701L345.392 27.3371C345.273 27.456 345.081 27.4587 344.959 27.3429C344.057 26.5258 342.882 26.0734 341.665 26.0734C340.448 26.0739 339.275 26.5263 338.373 27.3429C338.251 27.4589 338.058 27.4562 337.939 27.3371L336.785 26.1701C336.725 26.1091 336.691 26.0266 336.691 25.9406C336.692 25.8543 336.728 25.7711 336.79 25.7111ZM334.124 23.0295C338.339 18.9903 344.989 18.9901 349.204 23.0295C349.265 23.0894 349.299 23.1716 349.3 23.257C349.3 23.3426 349.266 23.4248 349.206 23.4855L348.05 24.6525C347.931 24.772 347.738 24.7732 347.617 24.6554C346.011 23.1287 343.88 22.2776 341.664 22.2775C339.448 22.2775 337.316 23.1286 335.71 24.6554C335.589 24.7734 335.396 24.7722 335.277 24.6525L334.121 23.4855C334.061 23.4248 334.027 23.3426 334.027 23.257C334.028 23.1715 334.063 23.0894 334.124 23.0295Z" fill="#121212"/>
<path d="M314 27.0029C314.552 27.0029 315 27.4506 315 28.0029V30.0029C315 30.5551 314.552 31.0029 314 31.0029H313C312.448 31.0029 312 30.5551 312 30.0029V28.0029C312 27.4506 312.448 27.0029 313 27.0029H314ZM318.666 25.0029C319.218 25.0029 319.666 25.4506 319.666 26.0029V30.0029C319.666 30.555 319.218 31.0029 318.666 31.0029H317.666C317.114 31.0029 316.666 30.555 316.666 30.0029V26.0029C316.666 25.4506 317.114 25.0029 317.666 25.0029H318.666ZM323.334 22.6689C323.886 22.6689 324.334 23.1168 324.334 23.6689V30.0029C324.334 30.5551 323.886 31.0029 323.334 31.0029H322.334C321.782 31.0029 321.334 30.5551 321.334 30.0029V23.6689C321.334 23.1168 321.782 22.6689 322.334 22.6689H323.334ZM328 20.3359C328.552 20.3359 329 20.7837 329 21.3359V30.0029C329 30.5551 328.552 31.0029 328 31.0029H327C326.448 31.0029 326 30.5551 326 30.0029V21.3359C326 20.7837 326.448 20.3359 327 20.3359H328Z" fill="#121212"/>
<path d="M19.3203 32.2563C22.0083 32.2563 23.605 30.1543 23.605 26.5947C23.605 25.2544 23.3486 24.1265 22.8579 23.2549C22.1475 21.8999 20.9243 21.1675 19.3789 21.1675C17.0791 21.1675 15.4531 22.7129 15.4531 24.8809C15.4531 26.917 16.918 28.3965 18.9321 28.3965C20.1699 28.3965 21.1733 27.8179 21.6714 26.8145H21.6934C21.6934 26.8145 21.7227 26.8145 21.73 26.8145C21.7446 26.8145 21.7959 26.8145 21.7959 26.8145C21.7959 29.2314 20.8804 30.6743 19.335 30.6743C18.4268 30.6743 17.7236 30.1763 17.4819 29.3779H15.5996C15.9146 31.1138 17.3867 32.2563 19.3203 32.2563ZM19.3862 26.895C18.1704 26.895 17.3062 26.0308 17.3062 24.8223C17.3062 23.6431 18.2144 22.7422 19.3936 22.7422C20.5728 22.7422 21.481 23.6577 21.481 24.8516C21.481 26.0308 20.5947 26.895 19.3862 26.895Z" fill="#121212"/>
<path d="M26.6961 32.1538C27.3919 32.1538 27.868 31.6558 27.868 30.9966C27.868 30.3301 27.3919 29.8394 26.6961 29.8394C26.0076 29.8394 25.5242 30.3301 25.5242 30.9966C25.5242 31.6558 26.0076 32.1538 26.6961 32.1538ZM26.6961 26.6606C27.3919 26.6606 27.868 26.1699 27.868 25.5107C27.868 24.8442 27.3919 24.3535 26.6961 24.3535C26.0076 24.3535 25.5242 24.8442 25.5242 25.5107C25.5242 26.1699 26.0076 26.6606 26.6961 26.6606Z" fill="#121212"/>
<path d="M34.7237 32H36.5328V30.0298H37.961V28.4331H36.5328V21.4312H33.8668C31.9991 24.2437 30.5123 26.5947 29.5602 28.3452V30.0298H34.7237V32ZM31.3106 28.3672C32.5411 26.1992 33.6397 24.4634 34.6505 22.9692H34.753V28.4771H31.3106V28.3672Z" fill="#121212"/>
<path d="M41.9896 32H43.8793V21.4312H41.997L39.2357 23.3647V25.1812L41.8651 23.3354H41.9896V32Z" fill="#121212"/>
<rect x="134" y="11" width="125" height="37" rx="18.5" fill="#121212"/>
</svg>
